<?xml version="1.0" encoding="UTF-8"?>
<!DOCTYPE svg PUBLIC "-//W3C//DTD SVG 1.1//EN" "http://www.w3.org/Graphics/SVG/1.1/DTD/svg11.dtd">
<svg xmlns="http://www.w3.org/2000/svg" version="1.1" width="200px" height="200px" style="shape-rendering:geometricPrecision; text-rendering:geometricPrecision; image-rendering:optimizeQuality; fill-rule:evenodd; clip-rule:evenodd" xmlns:xlink="http://www.w3.org/1999/xlink">
<g><path style="opacity:1" fill="#fdfdfd" d="M -0.5,-0.5 C 66.1667,-0.5 132.833,-0.5 199.5,-0.5C 199.5,66.1667 199.5,132.833 199.5,199.5C 132.833,199.5 66.1667,199.5 -0.5,199.5C -0.5,132.833 -0.5,66.1667 -0.5,-0.5 Z"/></g>
<g><path style="opacity:1" fill="#050505" d="M 76.5,25.5 C 88.0693,26.854 98.5693,30.854 108,37.5C 115.228,48.7379 118.894,61.0712 119,74.5C 126.729,76.8592 133.063,81.1925 138,87.5C 139.411,89.6504 140.245,91.9837 140.5,94.5C 152.479,93.309 164.479,92.809 176.5,93C 171.325,97.3435 166.325,101.843 161.5,106.5C 170.487,107.458 179.487,108.291 188.5,109C 175.671,115.914 163.004,123.08 150.5,130.5C 156.063,132.632 161.729,134.465 167.5,136C 157.86,138.991 148.193,141.991 138.5,145C 141.802,146.651 145.136,148.318 148.5,150C 141.5,150.333 134.5,150.667 127.5,151C 108.464,177.447 90.131,176.947 72.5,149.5C 71.2997,148.469 69.9663,147.635 68.5,147C 58.1745,145.918 47.8411,144.918 37.5,144C 42.8333,140.667 48.1667,137.333 53.5,134C 51.3295,132.414 48.9962,131.08 46.5,130C 35.9921,126.208 25.3254,123.041 14.5,120.5C 26.2065,112.921 38.8731,107.255 52.5,103.5C 48.5151,95.3459 43.1818,88.1792 36.5,82C 28.3844,75.22 19.7177,69.22 10.5,64C 23.2606,54.1113 37.594,48.4446 53.5,47C 64.5967,50.7737 74.0967,56.9404 82,65.5C 82.6667,59.1667 82.6667,52.8333 82,46.5C 80.4617,39.3913 78.6284,32.3913 76.5,25.5 Z"/></g>
<g><path style="opacity:1" fill="#f9f9f9" d="M 77.5,129.5 C 77.7828,130.289 78.2828,130.956 79,131.5C 79.4988,127.514 79.6655,123.514 79.5,119.5C 80.4323,115.652 82.7656,112.986 86.5,111.5C 87.0332,118.644 87.8665,125.644 89,132.5C 94.437,124.16 100.937,116.66 108.5,110C 110.217,108.441 112.217,107.608 114.5,107.5C 114.746,116.998 113.913,126.331 112,135.5C 117.917,128.655 123.084,121.322 127.5,113.5C 127.833,114.5 128.167,115.5 128.5,116.5C 127.17,120.803 126.337,125.137 126,129.5C 126.965,127.74 128.132,127.406 129.5,128.5C 128.36,130.078 127.86,131.744 128,133.5C 129.896,131.47 132.063,129.803 134.5,128.5C 136.1,136.969 133.1,143.302 125.5,147.5C 121.387,156.114 115.053,162.614 106.5,167C 102.167,167.667 97.8333,167.667 93.5,167C 87.4071,162.911 81.9071,158.078 77,152.5C 75.872,150.655 75.372,148.655 75.5,146.5C 71.6702,145.515 68.8369,143.181 67,139.5C 65,134.833 65,130.167 67,125.5C 69,127.5 71,129.5 73,131.5C 73.3333,129.833 73.6667,128.167 74,126.5C 75.0391,127.71 76.2058,128.71 77.5,129.5 Z"/></g>
<g><path style="opacity:1" fill="#7f7f7f" d="M 79.5,119.5 C 79.6655,123.514 79.4988,127.514 79,131.5C 78.2828,130.956 77.7828,130.289 77.5,129.5C 78.1667,126.167 78.8333,122.833 79.5,119.5 Z"/></g>
</svg>
